<?xml version="1.0" encoding="UTF-8"?><svg id="Layer_2" xmlns="http://www.w3.org/2000/svg" viewBox="0 0 1152.5 187.34"><defs><style>.cls-1{stroke:#22215a;}.cls-1,.cls-2{stroke-linecap:round;stroke-linejoin:round;}.cls-1,.cls-3{fill:#22215a;}.cls-2{fill:#7886f3;stroke:#7886f3;}</style></defs><g id="Layer_1-2"><path class="cls-1" d="M37.66,174.73c-5.77-3.02-4.57-8.13-5.3-16.09-.22-5.55-.44-9.41-.64-13.4-.53-7.67-.46-7.86-1.84-9.75-.74-.97-1.89-1.99-2.94-2.73-10.19-7.41-17.46-17.83-21.77-29.55C-3.85,78.69.18,48.62,17.37,28.53c7.94-10.84,18.38-19.67,31.74-24.27,4.64-1.4,12.46-3.33,18.13-3.67,7.63-.21,19.67-.02,27.3-.08,8.83,0,14.86.02,22.29.26,29.13.99,51.79,21.31,56.32,49.21,1.33,8.2,1.44,17.09.76,25.41-.98,10.44-2.52,18.86-8.67,25.6-5.6,6.05-15.35,4.28-20.81-1.2-4.04-3.65-3.61-7.79-2-12.88,9.72-28.15.64-57.64-32.65-56.23-.05,0-.11,0-.16,0-8.04-.19-18.98-.45-26.96-.55-6.32-.14-17.96-.22-20.75.74-34.75,7.93-40.49,59.33-17.27,82.35,9.67,9.27,22.22,11.36,37.32,11.6,3.2.24,4.95,3.16,6.2,5.77,3.13,6.37,8.03,13.92,11.57,18.12.71.85,1.82,2.13,2.39,3.07.27.44.34.57.27.62-1.05.5-7.15.49-9.68.57-12.86.46-20.9-1.68-30.94,8.09-4.73,4.06-9.57,8.89-14.28,11.56-4.03,2.32-6.11,3.64-9.63,2.21l-.22-.1Z"/><path class="cls-2" d="M226.9,171.31c-1.96,3.6-6.92,5.14-10.46,3.12-2.81-1.35-10.92-8.08-15.26-11.65-3.1-2.53-7.55-6.34-10.48-7.86-1.08-.69-5.93-.67-8.18-.64-10.95.19-28.33.27-37.4-.98-11.15-1.65-21.65-6.6-30.76-14.38-18.59-16.41-25.46-52.02-17.09-75.79,2.78-7.26,7.11-11.82,12.52-12.73,6.26-.97,12.84,2.08,14.82,7.88,2.57,5.86-1.18,12.69-2.73,18.57-.04.16-.08.32-.11.48-3.11,16.57,4.03,37.62,19.27,44.64,2.63,1.27,5.64,2.19,8.53,2.62,5.76.81,22.55,1.26,34.44.92,4.2-.17,9.62-.05,13.22-1.12,10.38-2.66,18.76-9.68,24.07-18.89,12.72-23.17,7.63-58.85-17.02-69.78-3.53-1.62-7.67-2.66-11.44-3.19-1.61-.28-3.24-.38-5.23-.58-.87-.15-2.03,0-2.55-.77-.81-1.71-1.55-4.42-2.27-6.33-3.12-9.03-6.42-15.62-10.1-21.31-.24-.58-.11-.93.41-1.06,2.56-.59,9.17.03,12.21.23,1.93.12,3.68.25,5.68.54,17.09,2.25,30.5,7.84,42.97,20.45,17.39,16.81,23.14,39.58,21.72,62.81-.72,17.08-10.28,34.66-20.55,46.84-.99,1.23-3.02,3.6-4.35,5.21-.7.84-1.13,1.88-1.23,2.97-.68,7.09-1.96,25.66-2.24,28.59-.03.41-.12.54-.37,1.09l-.05.1Z"/><path class="cls-3" d="M296.58,14.03h24.5v108.74h67.96v23.43h-92.47V14.03Z"/><path class="cls-3" d="M397.93,22.8c0-8.41,6.44-14.67,14.84-14.67s14.84,6.26,14.84,14.67-6.62,14.67-14.84,14.67-14.84-6.26-14.84-14.67ZM400.97,146.2V49.09h23.43v97.12h-23.43Z"/><path class="cls-3" d="M445.79,49.09h22.89v13.59c5.19-9.48,16.27-16.1,30.58-16.1,19.67,0,38.1,12.88,38.1,40.42v59.2h-23.43v-52.76c0-16.63-8.76-25.58-21.28-25.58-13.95,0-23.61,10.73-23.61,25.93v52.4h-23.25V49.09Z"/><path class="cls-3" d="M654.61,49.09v87.46c0,31.48-22.18,50.79-53.48,50.79-16.99,0-32.73-5.72-44.18-13.95l9.48-17.71c8.76,6.08,21.11,11.45,34.16,11.45,20.21,0,31.48-12.16,31.48-28.26v-5.72c-6.97,7.87-17.17,13.23-30.94,13.23-28.44,0-48.47-21.28-48.47-49.72s21.82-49.9,49.36-49.9c13.59,0,23.61,5.72,30.76,13.95v-11.62h21.82ZM632.79,96.84c0-16.63-11.98-28.8-28.26-28.8s-28.44,12.16-28.44,28.8,11.98,29.15,28.44,29.15,28.26-12.52,28.26-29.15Z"/><path class="cls-3" d="M670.76,97.56c0-28.08,21.11-50.97,51.87-50.97s51.87,22.89,51.87,50.97-21.11,51.15-51.87,51.15-51.87-22.89-51.87-51.15ZM751.06,97.56c0-16.1-12.34-29.33-28.44-29.33s-28.44,13.23-28.44,29.33,12.34,29.51,28.44,29.51,28.44-13.06,28.44-29.51Z"/><path class="cls-3" d="M793.58,14.03h24.5v108.74h67.96v23.43h-92.47V14.03Z"/><path class="cls-3" d="M894.94,22.8c0-8.41,6.44-14.67,14.84-14.67s14.84,6.26,14.84,14.67-6.62,14.67-14.84,14.67-14.84-6.26-14.84-14.67ZM897.98,146.2V49.09h23.43v97.12h-23.43Z"/><path class="cls-3" d="M942.79,49.09h22.89v13.59c5.19-9.48,16.27-16.1,30.58-16.1,19.67,0,38.1,12.88,38.1,40.42v59.2h-23.43v-52.76c0-16.63-8.76-25.58-21.28-25.58-13.95,0-23.61,10.73-23.61,25.93v52.4h-23.25V49.09Z"/><path class="cls-3" d="M1152.5,49.09v137h-23.43v-52.05c-7.33,8.41-17.71,14.49-31.48,14.49-27.9,0-47.93-22.71-47.93-50.97s20.03-50.79,47.93-50.79c13.95,0,24.32,6.44,31.66,15.02v-12.7h23.25ZM1129.79,97.74c0-16.1-11.27-29.51-28.26-29.51s-28.26,13.41-28.26,29.51,11.09,29.51,28.26,29.51,28.26-13.23,28.26-29.51Z"/></g></svg>