<svg version="1.1" id="Layer_1" xmlns="http://www.w3.org/2000/svg" xmlns:xlink="http://www.w3.org/1999/xlink" x="0px" y="0px"
	 width="100%" viewBox="0 0 1024 1024" enable-background="new 0 0 1024 1024" xml:space="preserve">
<path fill="#FFFEFD" opacity="1.000000" stroke="none" 
	d="
M678.000000,1025.000000 
	C452.000000,1025.000000 226.500000,1025.000000 1.000000,1025.000000 
	C1.000000,683.666687 1.000000,342.333344 1.000000,1.000000 
	C342.333344,1.000000 683.666687,1.000000 1025.000000,1.000000 
	C1025.000000,342.333344 1025.000000,683.666687 1025.000000,1025.000000 
	C909.500000,1025.000000 794.000000,1025.000000 678.000000,1025.000000 
M267.057495,398.037994 
	C267.057495,398.037994 267.056244,398.165863 267.562317,397.955505 
	C267.733459,397.644165 267.904633,397.332855 268.005463,397.017273 
	C268.005463,397.017273 268.038330,397.079590 268.511505,396.704926 
	C268.761810,396.170654 269.012085,395.636383 269.114380,395.052490 
	C269.114380,395.052490 269.096924,395.207581 269.668091,395.068756 
	C269.862213,394.733185 270.056335,394.397583 270.676361,393.909607 
	C270.935791,393.705566 271.053650,393.438934 271.528748,392.750671 
	C271.782623,392.214478 272.036499,391.678284 272.169891,391.226135 
	C272.169891,391.226135 272.290955,391.309387 272.859192,391.071075 
	C273.351349,390.412079 273.843506,389.753082 274.908051,388.824554 
	C276.634796,386.987183 278.361542,385.149811 280.646179,383.047272 
	C281.204712,382.488922 281.763214,381.930573 282.296936,381.268341 
	C282.296936,381.268341 282.216614,381.338745 282.825531,381.310120 
	C283.251740,380.882996 283.677948,380.455872 284.553284,379.926392 
	C284.850433,379.769714 285.017731,379.524445 285.629211,378.968262 
	C286.183350,378.393005 286.737457,377.817749 287.179779,377.138855 
	C287.179779,377.138855 287.121674,377.279724 287.729004,377.201569 
	C288.186707,376.818665 288.644409,376.435791 289.025452,376.022186 
	C289.025452,376.022186 289.049530,376.101135 289.643036,375.906189 
	C290.464020,375.280334 291.285004,374.654510 292.552246,373.983612 
	C292.863007,373.860016 293.035919,373.631897 293.632904,373.089386 
	C294.107269,372.734406 294.581665,372.379456 295.012939,371.992249 
	C295.012939,371.992249 295.020203,372.045502 295.627533,371.889343 
	C296.463074,371.287201 297.298584,370.685089 298.043549,370.046906 
	C298.043549,370.046906 298.026093,370.142822 298.690186,369.991394 
	C298.989899,369.675262 299.289612,369.359100 299.770569,369.216522 
	C299.770569,369.216522 299.981598,369.080688 300.670227,368.957825 
	C302.482635,367.991577 304.295044,367.025330 306.030853,366.039154 
	C306.030853,366.039154 306.031525,366.118317 306.805176,366.045593 
	C317.850250,363.470215 328.895355,360.894806 340.885223,358.323273 
	C363.570984,358.179535 386.256714,358.035767 409.819733,358.060211 
	C411.897797,358.001373 413.975861,357.942535 416.773224,357.970062 
	C417.495911,357.941559 418.218628,357.913055 419.753174,358.059021 
	C420.853821,358.000641 421.954498,357.942261 423.827942,357.970459 
	C424.862640,357.936554 425.897308,357.902679 427.797729,358.035522 
	C429.551636,357.949707 431.305511,357.863922 433.931488,357.856598 
	C449.616241,357.779236 465.301025,357.701843 481.695831,357.951447 
	C485.498749,358.324646 489.331573,358.508850 493.099365,359.104340 
	C508.079590,361.471985 522.192505,365.798157 533.782654,376.364044 
	C552.895386,393.787781 562.155090,415.897736 565.192200,441.893219 
	C565.198486,450.575958 565.204773,459.258698 564.972351,468.764160 
	C560.041260,499.897064 547.592896,526.726501 521.095032,545.708435 
	C536.949524,557.873474 555.736023,560.755371 575.978638,561.987610 
	C584.883545,562.000183 593.788696,562.052063 602.692871,561.976807 
	C603.842102,561.967102 604.985779,561.298584 606.694092,560.578369 
	C617.744080,543.596436 626.388977,525.504639 632.129578,505.240509 
	C636.465881,488.879395 638.457397,472.177521 638.733582,455.308838 
	C638.834167,449.163605 637.645691,442.997223 637.016296,436.389679 
	C637.016296,436.389679 636.875488,435.960419 637.042542,435.308716 
	C637.040894,434.867065 637.039185,434.425385 637.138123,433.159607 
	C636.769714,431.244415 636.025818,429.315918 636.092896,427.416138 
	C636.571960,413.857117 632.347229,401.111481 628.496521,388.529663 
	C615.554077,346.241669 586.132812,317.755280 548.527710,295.942352 
	C548.527710,295.942352 548.065979,295.838593 548.054871,295.928619 
	C548.054871,295.928619 548.144043,295.911987 547.822021,295.369385 
	C547.225647,295.190033 546.629333,295.010681 546.030090,294.956696 
	C546.030090,294.956696 546.154846,294.943329 545.943237,294.456299 
	C545.636963,294.330933 545.330750,294.205536 544.650330,293.928925 
	C544.650330,293.928925 544.246704,293.927246 543.923523,293.356689 
	C542.959839,292.880737 541.996094,292.404816 541.020813,291.999634 
	C541.020813,291.999634 541.081482,291.961304 540.666931,291.537994 
	C540.119202,291.380920 539.571472,291.223846 538.638062,290.929626 
	C538.638062,290.929626 538.228699,290.932922 537.882263,290.376160 
	C537.261963,290.210724 536.641602,290.045319 536.030579,289.963074 
	C536.030579,289.963074 536.110901,289.939362 535.731873,289.467407 
	C535.162964,289.334930 534.594116,289.202423 533.624207,288.933014 
	C533.624207,288.933014 533.200562,288.942780 532.827637,288.427216 
	C532.226440,288.306854 531.625183,288.186493 530.621948,287.932068 
	C530.621948,287.932068 530.198303,287.944214 529.710693,287.343170 
	C521.820740,285.929260 513.930725,284.515350 505.197021,282.933746 
	C503.784454,282.584015 502.380798,281.975800 500.957886,281.926910 
	C492.321442,281.630127 483.680939,281.292633 475.041199,281.277313 
	C430.547760,281.198425 386.052917,281.032043 341.561371,281.323059 
	C330.505463,281.395386 319.332703,282.301300 308.437195,284.144928 
	C288.471039,287.523407 269.721252,294.771698 252.884644,306.081543 
	C241.724838,313.578094 230.574585,321.334351 222.367584,332.375702 
	C215.538162,341.563751 208.692001,350.739349 201.276459,360.250336 
	C200.820908,361.485779 200.365356,362.721222 199.987579,363.976227 
	C199.987579,363.976227 199.949951,363.905396 199.394852,364.331360 
	C189.302750,381.240540 183.467163,399.677246 179.879700,418.948975 
	C179.879700,418.948975 179.908356,418.869263 179.388260,419.073425 
	C179.564590,419.469574 179.740936,419.865753 179.877457,420.614960 
	C179.877457,420.614960 179.931320,420.966095 179.559967,421.374268 
	C179.463379,421.903900 179.366791,422.433563 179.010834,423.625793 
	C178.393463,429.441833 177.776093,435.257843 177.024445,441.992859 
	C177.049469,460.310974 177.074493,478.629120 176.941147,497.809448 
	C177.945557,504.661713 179.184677,511.489288 179.907791,518.371094 
	C181.662643,535.071960 188.028854,550.093689 195.501816,564.924927 
	C203.762024,581.318481 213.976166,596.106567 227.284363,608.754639 
	C234.026337,615.162170 240.608414,621.742310 247.473541,628.013672 
	C250.324844,630.618347 253.726593,632.620422 256.909943,635.852173 
	C256.824402,665.009033 256.665039,694.166138 256.757080,723.322449 
	C256.767303,726.562622 258.209747,729.798340 259.007050,733.005554 
	C259.007050,733.005554 258.971252,733.009460 259.067657,733.680481 
	C259.694824,734.165039 260.321991,734.649597 260.972351,735.042664 
	C260.972351,735.042664 260.878326,735.033997 261.047272,735.530212 
	C261.347046,735.644226 261.646820,735.758240 262.816864,735.994019 
	C268.098114,736.901001 271.983246,734.544861 275.618195,730.976746 
	C282.975525,723.754517 290.578949,716.783875 298.005798,709.631531 
	C301.685760,706.087585 305.101379,702.267578 308.807220,698.752380 
	C318.175903,689.865723 327.641144,681.080811 337.609711,672.019104 
	C337.806885,671.715271 338.004059,671.411438 338.075836,671.170898 
	C338.075836,671.170898 338.167084,671.277588 338.750000,671.162537 
	C338.923157,670.832214 339.096313,670.501953 339.135590,670.164673 
	C339.135590,670.164673 339.190979,670.286743 339.784760,670.196167 
	C339.949371,669.860657 340.114014,669.525146 340.213837,669.356262 
	C340.213837,669.356262 340.384399,669.409729 340.767731,669.330872 
	C340.767731,669.330872 341.007233,669.021301 341.628815,668.768921 
	C343.318909,667.167297 344.944702,665.490601 346.711487,663.978638 
	C351.456757,659.917664 356.262299,655.927246 361.970825,652.007202 
	C390.293701,651.966553 418.616547,651.925842 447.825073,652.031311 
	C459.157166,649.834839 471.220520,651.205322 482.614319,645.888672 
	C473.025024,638.823669 464.209351,632.684998 455.786835,626.047424 
	C439.337646,613.084351 425.572845,597.612488 413.956055,579.499023 
	C413.643188,579.303955 413.330322,579.108826 413.071777,579.011353 
	C413.071777,579.011353 413.168060,578.954773 413.090912,578.269775 
	C412.740021,578.143188 412.389160,578.016541 411.984375,577.955688 
	C411.984375,577.955688 412.064270,577.926392 411.674316,577.140747 
	C399.137451,577.133728 386.600616,577.126648 373.222229,576.945190 
	C371.796021,577.002319 370.369843,577.059509 368.018280,577.029480 
	C362.034180,577.061096 356.050110,577.092712 349.293945,576.950562 
	C348.509308,577.008606 347.724670,577.066650 346.038452,577.036133 
	C339.395233,576.520752 332.752045,576.005432 325.351074,575.091797 
	C312.132629,572.916687 299.665009,568.786560 288.552338,561.069397 
	C271.763580,549.410583 261.429138,533.245361 255.435471,513.353455 
	C254.974045,512.509766 254.512619,511.666138 254.050980,510.392120 
	C254.050980,510.392120 253.936676,509.977203 254.096466,509.138672 
	C253.414978,506.031494 252.733490,502.924286 252.046173,499.381836 
	C252.046173,499.381836 251.908890,498.968719 252.074249,498.257050 
	C252.368469,475.510437 252.662689,452.763824 253.060303,429.607330 
	C253.060303,429.607330 253.053238,429.184723 253.669998,428.813690 
	C253.757370,427.884552 253.844742,426.955414 254.050583,425.613892 
	C254.050583,425.613892 254.053604,425.184845 254.639069,424.862610 
	C254.774979,424.235168 254.910889,423.607697 255.186234,422.680603 
	C255.186234,422.680603 255.092987,422.363495 255.673370,421.905121 
	C255.845123,420.944397 256.016876,419.983673 256.063599,419.044769 
	C256.063599,419.044769 256.108612,419.163452 256.658234,418.842651 
	C256.812958,418.235992 256.967651,417.629333 257.039246,417.030029 
	C257.039246,417.030029 257.061615,417.110413 257.611328,416.633514 
	C258.193726,414.981354 258.776123,413.329224 259.889435,411.340424 
	C260.920197,409.224121 261.950958,407.107819 263.352631,404.556274 
	C263.593903,404.049652 263.835175,403.543030 264.004120,403.018982 
	C264.004120,403.018982 264.040680,403.083771 264.504425,402.696594 
	C264.731903,402.145874 264.959351,401.595123 265.071747,401.051727 
	C265.071747,401.051727 265.106049,401.161774 265.639465,400.838837 
	C265.865601,400.279724 266.091736,399.720642 266.182587,399.097687 
	C266.182587,399.097687 266.171722,399.246887 266.744843,399.133270 
	C266.891083,398.775391 267.037323,398.417511 267.057495,398.037994 
M543.034424,572.942078 
	C543.034424,572.942078 543.120483,572.924683 542.835449,572.349243 
	C542.230774,572.260376 541.626038,572.171570 540.596436,571.967163 
	C540.596436,571.967163 540.156311,571.950989 539.816223,571.353699 
	C538.961487,571.088928 538.106812,570.824158 537.187622,570.583130 
	C537.187622,570.583130 537.210693,570.647827 536.825928,570.113892 
	C535.565491,569.679077 534.305054,569.244202 532.645142,568.245239 
	C519.615906,562.754822 507.841156,555.355835 498.647797,544.492004 
	C466.839417,506.903809 462.610260,448.373627 489.032745,405.864929 
	C495.004059,396.258179 502.810089,387.791870 509.673157,378.927704 
	C498.325989,374.036865 485.170197,372.949829 471.037079,372.010742 
	C455.987213,372.306946 440.934723,372.525360 425.891724,373.027161 
	C424.484863,373.074066 423.137695,374.910950 421.885223,375.926636 
	C421.885223,375.926636 421.853363,375.808044 421.263489,376.169739 
	C419.357727,380.334534 417.451965,384.499359 415.567657,388.731323 
	C415.567657,388.731323 415.604858,388.791229 415.050385,389.173889 
	C413.878204,392.336975 412.706024,395.500092 411.554291,398.740173 
	C411.554291,398.740173 411.617279,398.788971 411.093079,399.119141 
	C410.910095,399.718506 410.727081,400.317841 410.090149,401.449799 
	C407.775360,409.979523 405.460541,418.509277 402.974213,427.826752 
	C395.730591,463.855072 397.871674,499.248718 410.143799,534.694763 
	C417.435669,554.940186 426.679688,574.070129 440.843323,590.587280 
	C454.556213,606.578796 470.626740,619.570923 488.680603,630.342468 
	C503.766571,639.343201 519.626587,646.053650 537.737732,649.241882 
	C548.049683,650.497009 558.347168,652.672852 568.676270,652.835266 
	C600.100403,653.329468 631.536682,653.046387 662.989807,653.000671 
	C662.989807,653.000671 662.931335,653.036987 663.279846,653.609131 
	C665.152527,655.092529 667.025269,656.575928 669.193420,658.668945 
	C675.568176,664.339355 682.000671,669.946289 688.303833,675.695251 
	C697.370422,683.964722 706.328430,692.353088 715.359009,700.662170 
	C726.976196,711.351135 738.827881,721.797363 750.144348,732.794983 
	C754.401001,736.931641 758.824219,738.368713 763.913025,736.308105 
	C769.040100,734.231995 769.222229,729.237915 769.002258,724.445312 
	C768.979431,723.948547 768.906616,723.453979 768.981384,722.033569 
	C769.035706,692.363647 769.090027,662.693665 769.762146,632.769287 
	C772.343689,630.718445 774.930237,628.673950 777.505981,626.615845 
	C791.944031,615.079346 805.633301,602.734314 816.651978,587.805908 
	C827.697083,572.841797 835.902527,556.277222 840.886902,538.399109 
	C844.307190,526.131042 846.248230,513.450562 848.978088,500.030609 
	C848.927429,479.374634 848.876770,458.718658 848.903442,437.203583 
	C846.335266,424.003357 844.582764,410.578400 841.020874,397.651978 
	C834.562744,374.214630 821.841309,354.178619 805.746765,335.979889 
	C788.415955,316.383301 767.879150,301.712097 743.516357,292.390350 
	C729.184143,286.906525 714.231873,284.163330 698.023560,283.027100 
	C661.701050,283.067200 625.378601,283.107330 588.166260,282.997467 
	C579.513733,283.979889 570.861267,284.962311 562.208740,285.944702 
	C562.663879,287.471375 563.006592,287.781677 563.403198,287.988495 
	C578.537781,295.879456 591.738281,306.479584 602.954163,319.099640 
	C612.688538,330.052856 620.908875,342.351654 629.968567,354.643127 
	C630.256714,354.848480 630.544922,355.053802 630.837891,355.100220 
	C630.837891,355.100220 630.686829,355.149780 630.687500,355.947540 
	C632.020630,356.790710 633.343201,358.349243 634.688416,358.369019 
	C652.774963,358.635010 670.864685,358.686554 689.810364,358.990875 
	C692.442810,359.306183 695.075500,359.620117 697.707764,359.936981 
	C732.752136,364.155121 764.747375,393.343201 770.826904,428.052277 
	C775.239990,453.247437 774.397461,478.875275 771.562012,504.127594 
	C769.425049,523.159119 760.349731,539.690796 745.899719,552.914978 
	C733.864197,563.929382 719.769287,570.805847 703.234680,574.872620 
	C697.995422,575.572754 692.741150,576.975281 687.519348,576.863220 
	C640.690369,575.858276 593.747131,579.963074 546.763977,573.281494 
	C546.170288,573.213867 545.576660,573.146240 544.345093,572.923279 
	C543.909241,572.900330 543.473389,572.877319 543.034424,572.942078 
z"/>
<path fill="#FF5F4C" opacity="1.000000" stroke="none" 
	d="
M337.067627,672.255066 
	C327.641144,681.080811 318.175903,689.865723 308.807220,698.752380 
	C305.101379,702.267578 301.685760,706.087585 298.005798,709.631531 
	C290.578949,716.783875 282.975525,723.754517 275.618195,730.976746 
	C271.983246,734.544861 268.098114,736.901001 262.280884,735.712158 
	C261.510193,735.179749 261.221344,735.047668 260.878326,735.033997 
	C260.878326,735.033997 260.972351,735.042664 260.937836,734.750366 
	C260.259308,733.975220 259.615295,733.492310 258.971252,733.009460 
	C258.971252,733.009460 259.007050,733.005554 258.975616,732.595459 
	C258.626282,729.070557 258.040314,725.956421 258.032471,722.840820 
	C257.963440,695.393555 258.019104,667.946045 257.952301,640.498779 
	C257.947754,638.630493 257.252197,636.763916 256.878052,634.896484 
	C253.726593,632.620422 250.324844,630.618347 247.473541,628.013672 
	C240.608414,621.742310 234.026337,615.162170 227.284363,608.754639 
	C213.976166,596.106567 203.762024,581.318481 195.501816,564.924927 
	C188.028854,550.093689 181.662643,535.071960 179.907791,518.371094 
	C179.184677,511.489288 177.945557,504.661713 177.312775,497.086823 
	C177.779633,478.512482 177.882553,460.660767 177.935608,442.808929 
	C177.937317,442.231354 177.429184,441.652252 177.158722,441.073883 
	C177.776093,435.257843 178.393463,429.441833 179.420990,423.253479 
	C179.864548,422.242798 179.897934,421.604462 179.931320,420.966095 
	C179.931320,420.966095 179.877457,420.614960 179.930054,420.089874 
	C179.957901,419.332916 179.933121,419.101074 179.908356,418.869263 
	C179.908356,418.869263 179.879700,418.948975 180.236969,418.906036 
	C182.039993,414.963379 183.659683,411.117889 184.895203,407.152649 
	C187.436066,398.998260 189.513351,390.691681 192.273743,382.615997 
	C194.450241,376.248474 197.363770,370.132874 199.949951,363.905396 
	C199.949951,363.905396 199.987579,363.976227 200.289459,363.950684 
	C201.011963,362.590210 201.432602,361.255341 201.853256,359.920441 
	C208.692001,350.739349 215.538162,341.563751 222.367584,332.375702 
	C230.574585,321.334351 241.724838,313.578094 252.884644,306.081543 
	C269.721252,294.771698 288.471039,287.523407 308.437195,284.144928 
	C319.332703,282.301300 330.505463,281.395386 341.561371,281.323059 
	C386.052917,281.032043 430.547760,281.198425 475.041199,281.277313 
	C483.680939,281.292633 492.321442,281.630127 500.957886,281.926910 
	C502.380798,281.975800 503.784454,282.584015 505.884430,283.291168 
	C514.447327,285.080475 522.322815,286.512360 530.198303,287.944214 
	C530.198303,287.944214 530.621948,287.932068 531.004883,288.254913 
	C531.992004,288.699432 532.596313,288.821106 533.200562,288.942780 
	C533.200562,288.942780 533.624207,288.933014 533.995728,289.250519 
	C534.948486,289.691803 535.529724,289.815582 536.110901,289.939362 
	C536.110901,289.939362 536.030579,289.963074 536.182983,290.217560 
	C536.966431,290.625671 537.597595,290.779297 538.228699,290.932922 
	C538.228699,290.932922 538.638062,290.929626 538.997559,291.246643 
	C539.931824,291.696228 540.506653,291.828766 541.081482,291.961304 
	C541.081482,291.961304 541.020813,291.999634 541.063599,292.334778 
	C542.153137,293.089020 543.199951,293.508148 544.246704,293.927246 
	C544.246704,293.927246 544.650330,293.928925 544.954956,294.225403 
	C545.557983,294.662354 545.856445,294.802856 546.154846,294.943329 
	C546.154846,294.943329 546.030090,294.956696 546.172485,295.190247 
	C546.924622,295.586517 547.534302,295.749237 548.144043,295.911987 
	C548.144043,295.911987 548.054871,295.928619 548.100281,296.080200 
	C548.420898,296.190338 548.696045,296.148865 548.971252,296.107391 
	C586.132812,317.755280 615.554077,346.241669 628.496521,388.529663 
	C632.347229,401.111481 636.571960,413.857117 636.092896,427.416138 
	C636.025818,429.315918 636.769714,431.244415 636.857544,433.704041 
	C636.676453,434.819153 636.776001,435.389771 636.875488,435.960419 
	C636.875488,435.960419 637.016296,436.389679 637.009155,437.094177 
	C637.457153,459.844574 636.739014,481.781860 631.142334,503.293335 
	C630.941223,504.066193 631.624695,505.069153 631.895935,505.964844 
	C626.388977,525.504639 617.744080,543.596436 605.933716,560.759033 
	C599.027893,560.955811 592.879822,560.867981 586.738037,561.025574 
	C582.838013,561.125732 578.947388,561.590942 575.052551,561.892456 
	C555.736023,560.755371 536.949524,557.873474 521.095032,545.708435 
	C547.592896,526.726501 560.041260,499.897064 565.464966,468.242676 
	C566.278687,467.182251 566.873962,466.646210 566.879578,466.103973 
	C566.957642,458.613342 567.011108,451.121002 566.894958,443.631805 
	C566.881531,442.766937 565.814514,441.918427 565.235962,441.062317 
	C562.155090,415.897736 552.895386,393.787781 533.782654,376.364044 
	C522.192505,365.798157 508.079590,361.471985 493.099365,359.104340 
	C489.331573,358.508850 485.498749,358.324646 481.148743,357.387115 
	C480.177490,356.590729 479.754150,356.157562 479.329010,356.155731 
	C464.753510,356.093323 450.177704,356.042603 435.602600,356.118591 
	C434.752014,356.122986 433.907013,357.200165 433.059418,357.778107 
	C431.305511,357.863922 429.551636,357.949707 427.159607,357.708282 
	C425.366028,357.548645 424.210602,357.716248 423.055145,357.883881 
	C421.954498,357.942261 420.853821,358.000641 419.175079,357.734375 
	C417.749298,357.567688 416.901611,357.725677 416.053925,357.883667 
	C413.975861,357.942535 411.897797,358.001373 409.084656,357.690674 
	C385.576385,357.225494 362.803253,357.129852 339.602783,357.022034 
	C334.453094,357.681458 329.580048,357.833527 325.044403,359.149048 
	C318.577026,361.024841 312.357147,363.753815 306.031525,366.118317 
	C306.031525,366.118317 306.030853,366.039154 305.671509,366.035339 
	C303.535339,367.047913 301.758453,368.064301 299.981598,369.080688 
	C299.981598,369.080688 299.770569,369.216522 299.350098,369.207336 
	C298.628418,369.513062 298.327240,369.827942 298.026093,370.142822 
	C298.026093,370.142822 298.043549,370.046906 297.718597,370.040649 
	C296.602509,370.704803 295.811371,371.375153 295.020203,372.045502 
	C295.020203,372.045502 295.012939,371.992249 294.708496,372.042480 
	C293.959656,372.494873 293.515320,372.897064 293.070984,373.299255 
	C293.035919,373.631897 292.863007,373.860016 291.958862,374.006226 
	C290.593506,374.719604 289.821533,375.410370 289.049530,376.101135 
	C289.049530,376.101135 289.025452,376.022186 288.735474,376.048462 
	C288.004211,376.476379 287.562958,376.878052 287.121674,377.279724 
	C287.121674,377.279724 287.179779,377.138855 286.870789,377.139893 
	C286.059570,377.824188 285.557373,378.507416 285.055145,379.190643 
	C285.017731,379.524445 284.850433,379.769714 283.998352,379.995728 
	C283.034454,380.489624 282.625519,380.914185 282.216614,381.338745 
	C282.216614,381.338745 282.296936,381.268341 281.939331,381.228271 
	C281.083923,381.896271 280.586121,382.604370 280.088318,383.312439 
	C278.361542,385.149811 276.634796,386.987183 274.248291,388.960388 
	C273.155975,389.833923 272.723480,390.571655 272.290955,391.309387 
	C272.290955,391.309387 272.169891,391.226135 271.912476,391.275085 
	C271.446686,391.919312 271.238281,392.514526 271.029907,393.109772 
	C271.053650,393.438934 270.935791,393.705566 270.185608,394.076477 
	C269.495575,394.564728 269.296234,394.886169 269.096924,395.207581 
	C269.096924,395.207581 269.114380,395.052490 268.879150,395.180725 
	C268.442078,395.899200 268.240204,396.489380 268.038330,397.079590 
	C268.038330,397.079590 268.005463,397.017273 267.793274,397.129028 
	C267.406158,397.549133 267.231201,397.857483 267.056244,398.165863 
	C267.056244,398.165863 267.057495,398.037994 266.848846,398.143097 
	C266.484039,398.581116 266.327881,398.914001 266.171753,399.246887 
	C266.171722,399.246887 266.182587,399.097687 265.923553,399.215027 
	C265.478363,399.942200 265.292206,400.551971 265.106049,401.161774 
	C265.106049,401.161774 265.071747,401.051727 264.832245,401.174377 
	C264.408722,401.892578 264.224701,402.488190 264.040680,403.083771 
	C264.040680,403.083771 264.004120,403.018982 263.738892,403.031982 
	C263.309692,403.693848 263.145721,404.342682 262.981720,404.991516 
	C261.950958,407.107819 260.920197,409.224121 259.272888,411.719482 
	C258.124725,413.769165 257.593170,415.439789 257.061615,417.110413 
	C257.061615,417.110413 257.039246,417.030029 256.790466,417.175476 
	C256.397308,417.935089 256.252960,418.549286 256.108612,419.163452 
	C256.108612,419.163452 256.063599,419.044769 255.796021,419.227539 
	C255.383301,420.394714 255.238144,421.379120 255.092987,422.363495 
	C255.092987,422.363495 255.186234,422.680603 254.840317,423.003998 
	C254.347458,423.946533 254.200531,424.565704 254.053604,425.184845 
	C254.053604,425.184845 254.050583,425.613892 253.720642,426.037170 
	C253.278214,427.368530 253.165741,428.276642 253.053253,429.184723 
	C253.053238,429.184723 253.060303,429.607330 252.716599,430.052704 
	C251.585159,435.693817 250.245407,440.876038 250.117767,446.087952 
	C249.792694,459.362000 249.855911,472.652069 250.096207,485.929718 
	C250.175034,490.285553 251.275574,494.622925 251.908875,498.968719 
	C251.908890,498.968719 252.046173,499.381836 252.026886,500.040344 
	C252.650604,503.791626 253.293640,506.884399 253.936676,509.977203 
	C253.936676,509.977203 254.050980,510.392120 254.032043,510.945618 
	C254.527649,512.315796 255.042206,513.132507 255.556747,513.949158 
	C261.429138,533.245361 271.763580,549.410583 288.552338,561.069397 
	C299.665009,568.786560 312.132629,572.916687 325.842682,575.619751 
	C333.202881,576.473328 340.071442,576.798950 346.940033,577.124634 
	C347.724670,577.066650 348.509308,577.008606 349.981445,577.314636 
	C356.760529,577.491394 362.852081,577.304016 368.943634,577.116638 
	C370.369843,577.059509 371.796021,577.002319 373.943604,577.311462 
	C387.131378,577.760620 399.597839,577.843506 412.064270,577.926392 
	C412.064270,577.926392 411.984375,577.955688 412.110657,578.180786 
	C412.547302,578.588806 412.857697,578.771790 413.168060,578.954773 
	C413.168060,578.954773 413.071777,579.011353 413.156891,579.216797 
	C413.534119,579.642639 413.826263,579.863037 414.118378,580.083435 
	C425.572845,597.612488 439.337646,613.084351 455.786835,626.047424 
	C464.209351,632.684998 473.025024,638.823669 482.614319,645.888672 
	C471.220520,651.205322 459.157166,649.834839 447.088562,651.669678 
	C445.702087,651.205627 445.052185,651.014282 444.402161,651.013733 
	C417.843353,650.992188 391.284546,650.975464 364.725830,651.020752 
	C363.498016,651.022827 362.271179,651.599670 361.043884,651.908813 
	C356.262299,655.927246 351.456757,659.917664 346.711487,663.978638 
	C344.944702,665.490601 343.318909,667.167297 341.201874,668.716187 
	C340.644745,668.912170 340.514557,669.160950 340.384399,669.409729 
	C340.384399,669.409729 340.213837,669.356262 339.950500,669.315186 
	C339.521759,669.611572 339.356354,669.949158 339.190979,670.286743 
	C339.190979,670.286743 339.135590,670.164673 338.909241,670.218323 
	C338.510956,670.607178 338.339020,670.942383 338.167084,671.277588 
	C338.167084,671.277588 338.075836,671.170898 337.858521,671.223145 
	C337.450012,671.601868 337.258820,671.928467 337.067627,672.255066 
z"/>
<path fill="#16B5AE" opacity="1.000000" stroke="none" 
	d="
M471.959900,372.151276 
	C485.170197,372.949829 498.325989,374.036865 509.673157,378.927704 
	C502.810089,387.791870 495.004059,396.258179 489.032745,405.864929 
	C462.610260,448.373627 466.839417,506.903809 498.647797,544.492004 
	C507.841156,555.355835 519.615906,562.754822 532.969360,568.873413 
	C534.599243,569.883606 535.904968,570.265747 537.210693,570.647827 
	C537.210693,570.647827 537.187622,570.583130 537.297363,570.936401 
	C538.323547,571.510132 539.239929,571.730591 540.156311,571.950989 
	C540.156311,571.950989 540.596436,571.967163 540.991516,572.265259 
	C541.964539,572.683716 542.542542,572.804199 543.120483,572.924683 
	C543.120483,572.924683 543.034424,572.942078 543.146667,573.148193 
	C543.833618,573.262390 544.408264,573.170471 544.982971,573.078613 
	C545.576660,573.146240 546.170288,573.213867 547.105225,573.880188 
	C548.849426,574.967529 550.225891,575.776672 551.659424,575.895020 
	C565.008179,576.997498 578.363098,578.780823 591.723145,578.841248 
	C624.808228,578.990784 657.899048,578.450500 690.981934,577.868469 
	C695.373657,577.791199 699.732788,575.860474 704.107056,574.788086 
	C719.769287,570.805847 733.864197,563.929382 745.899719,552.914978 
	C760.349731,539.690796 769.425049,523.159119 771.562012,504.127594 
	C774.397461,478.875275 775.239990,453.247437 770.826904,428.052277 
	C764.747375,393.343201 732.752136,364.155121 697.707764,359.936981 
	C695.075500,359.620117 692.442810,359.306183 689.278076,358.513397 
	C687.056458,357.693207 685.368469,357.061279 683.677490,357.052917 
	C668.133484,356.975952 652.588196,357.077545 637.045227,356.924255 
	C634.920166,356.903290 632.806030,355.768768 630.686829,355.149780 
	C630.686829,355.149780 630.837891,355.100220 630.775024,354.897949 
	C630.407532,354.482330 630.102966,354.269043 629.798340,354.055756 
	C620.908875,342.351654 612.688538,330.052856 602.954163,319.099640 
	C591.738281,306.479584 578.537781,295.879456 563.403198,287.988495 
	C563.006592,287.781677 562.663879,287.471375 562.208740,285.944702 
	C570.861267,284.962311 579.513733,283.979889 588.920410,283.341858 
	C590.324341,283.789185 590.974060,283.981873 591.623840,283.982147 
	C626.149475,283.997406 660.675049,284.005341 695.200623,283.961548 
	C696.449524,283.959991 697.697754,283.433258 698.946289,283.151306 
	C714.231873,284.163330 729.184143,286.906525 743.516357,292.390350 
	C767.879150,301.712097 788.415955,316.383301 805.746765,335.979889 
	C821.841309,354.178619 834.562744,374.214630 841.020874,397.651978 
	C844.582764,410.578400 846.335266,424.003357 848.599609,437.945160 
	C848.208130,458.861359 848.113647,479.035919 848.067505,499.210663 
	C848.066162,499.791321 848.577942,500.373169 848.850525,500.954468 
	C846.248230,513.450562 844.307190,526.131042 840.886902,538.399109 
	C835.902527,556.277222 827.697083,572.841797 816.651978,587.805908 
	C805.633301,602.734314 791.944031,615.079346 777.505981,626.615845 
	C774.930237,628.673950 772.343689,630.718445 769.121643,633.156921 
	C768.319641,634.511414 768.017822,635.478088 768.016907,636.445068 
	C767.991943,664.035522 767.986084,691.625977 768.034119,719.216370 
	C768.036255,720.464172 768.570557,721.711121 768.857056,722.958435 
	C768.906616,723.453979 768.979431,723.948547 769.002258,724.445312 
	C769.222229,729.237915 769.040100,734.231995 763.913025,736.308105 
	C758.824219,738.368713 754.401001,736.931641 750.144348,732.794983 
	C738.827881,721.797363 726.976196,711.351135 715.359009,700.662170 
	C706.328430,692.353088 697.370422,683.964722 688.303833,675.695251 
	C682.000671,669.946289 675.568176,664.339355 669.259644,658.181335 
	C667.194336,656.141479 665.062866,654.589233 662.931335,653.036987 
	C662.931335,653.036987 662.989807,653.000671 662.905029,652.630127 
	C660.998230,651.840149 659.177002,651.059692 657.353882,651.055176 
	C627.031189,650.980042 596.706543,651.176758 566.386536,650.883484 
	C558.497437,650.807068 550.628662,649.203735 542.736389,648.450378 
	C540.867004,648.271973 538.940491,648.693115 537.040222,648.838501 
	C519.626587,646.053650 503.766571,639.343201 488.680603,630.342468 
	C470.626740,619.570923 454.556213,606.578796 440.843323,590.587280 
	C426.679688,574.070129 417.435669,554.940186 410.394684,534.080444 
	C409.765320,529.982788 408.916534,526.491150 407.999725,523.017395 
	C402.272156,501.316589 398.832703,479.367859 401.019745,456.843018 
	C401.816589,448.636353 402.919403,440.459534 403.724152,432.253540 
	C403.891174,430.550659 403.356812,428.778961 403.145721,427.039001 
	C405.460541,418.509277 407.775360,409.979523 410.651184,401.066406 
	C411.347229,400.051666 411.482269,399.420319 411.617279,398.788971 
	C411.617279,398.788971 411.554291,398.740173 411.918579,398.669647 
	C413.390228,395.329834 414.497559,392.060547 415.604858,388.791229 
	C415.604858,388.791229 415.567657,388.731323 415.921509,388.670105 
	C418.134705,384.341949 419.994049,380.075012 421.853394,375.808044 
	C421.853363,375.808044 421.885223,375.926636 422.208954,375.802979 
	C424.205994,375.122467 425.864594,374.134644 427.554932,374.077026 
	C440.942078,373.620575 454.335907,373.363647 467.725647,372.974579 
	C469.143829,372.933380 470.548798,372.436676 471.959900,372.151276 
z"/>
<path fill="#06ABA4" opacity="1.000000" stroke="none" 
	d="
M703.670898,574.830322 
	C699.732788,575.860474 695.373657,577.791199 690.981934,577.868469 
	C657.899048,578.450500 624.808228,578.990784 591.723145,578.841248 
	C578.363098,578.780823 565.008179,576.997498 551.659424,575.895020 
	C550.225891,575.776672 548.849426,574.967529 547.239441,574.157227 
	C593.747131,579.963074 640.690369,575.858276 687.519348,576.863220 
	C692.741150,576.975281 697.995422,575.572754 703.670898,574.830322 
z"/>
<path fill="#06ABA4" opacity="1.000000" stroke="none" 
	d="
M537.388977,649.040161 
	C538.940491,648.693115 540.867004,648.271973 542.736389,648.450378 
	C550.628662,649.203735 558.497437,650.807068 566.386536,650.883484 
	C596.706543,651.176758 627.031189,650.980042 657.353882,651.055176 
	C659.177002,651.059692 660.998230,651.840149 662.894287,652.662720 
	C631.536682,653.046387 600.100403,653.329468 568.676270,652.835266 
	C558.347168,652.672852 548.049683,650.497009 537.388977,649.040161 
z"/>
<path fill="#06ABA4" opacity="1.000000" stroke="none" 
	d="
M403.059967,427.432861 
	C403.356812,428.778961 403.891174,430.550659 403.724152,432.253540 
	C402.919403,440.459534 401.816589,448.636353 401.019745,456.843018 
	C398.832703,479.367859 402.272156,501.316589 407.999725,523.017395 
	C408.916534,526.491150 409.765320,529.982788 410.398682,533.711426 
	C397.871674,499.248718 395.730591,463.855072 403.059967,427.432861 
z"/>
<path fill="#FE4A35" opacity="1.000000" stroke="none" 
	d="
M251.991562,498.612885 
	C251.275574,494.622925 250.175034,490.285553 250.096207,485.929718 
	C249.855911,472.652069 249.792694,459.362000 250.117767,446.087952 
	C250.245407,440.876038 251.585159,435.693817 252.664886,430.257629 
	C252.662689,452.763824 252.368469,475.510437 251.991562,498.612885 
z"/>
<path fill="#FE4A35" opacity="1.000000" stroke="none" 
	d="
M632.012756,505.602661 
	C631.624695,505.069153 630.941223,504.066193 631.142334,503.293335 
	C636.739014,481.781860 637.457153,459.844574 637.023682,437.319580 
	C637.645691,442.997223 638.834167,449.163605 638.733582,455.308838 
	C638.457397,472.177521 636.465881,488.879395 632.012756,505.602661 
z"/>
<path fill="#00A098" opacity="1.000000" stroke="none" 
	d="
M630.687134,355.548676 
	C632.806030,355.768768 634.920166,356.903290 637.045227,356.924255 
	C652.588196,357.077545 668.133484,356.975952 683.677490,357.052917 
	C685.368469,357.061279 687.056458,357.693207 688.849731,358.413605 
	C670.864685,358.686554 652.774963,358.635010 634.688416,358.369019 
	C633.343201,358.349243 632.020630,356.790710 630.687134,355.548676 
z"/>
<path fill="#FE4A35" opacity="1.000000" stroke="none" 
	d="
M199.672394,364.118378 
	C197.363770,370.132874 194.450241,376.248474 192.273743,382.615997 
	C189.513351,390.691681 187.436066,398.998260 184.895203,407.152649 
	C183.659683,411.117889 182.039993,414.963379 180.203613,418.879944 
	C183.467163,399.677246 189.302750,381.240540 199.672394,364.118378 
z"/>
<path fill="#00A098" opacity="1.000000" stroke="none" 
	d="
M698.484924,283.089203 
	C697.697754,283.433258 696.449524,283.959991 695.200623,283.961548 
	C660.675049,284.005341 626.149475,283.997406 591.623840,283.982147 
	C590.974060,283.981873 590.324341,283.789185 589.365356,283.416870 
	C625.378601,283.107330 661.701050,283.067200 698.484924,283.089203 
z"/>
<path fill="#FE341D" opacity="1.000000" stroke="none" 
	d="
M256.893982,635.374390 
	C257.252197,636.763916 257.947754,638.630493 257.952301,640.498779 
	C258.019104,667.946045 257.963440,695.393555 258.032471,722.840820 
	C258.040314,725.956421 258.626282,729.070557 258.966064,732.610718 
	C258.209747,729.798340 256.767303,726.562622 256.757080,723.322449 
	C256.665039,694.166138 256.824402,665.009033 256.893982,635.374390 
z"/>
<path fill="#FE341D" opacity="1.000000" stroke="none" 
	d="
M361.507355,651.958008 
	C362.271179,651.599670 363.498016,651.022827 364.725830,651.020752 
	C391.284546,650.975464 417.843353,650.992188 444.402161,651.013733 
	C445.052185,651.014282 445.702087,651.205627 446.645752,651.596558 
	C418.616547,651.925842 390.293701,651.966553 361.507355,651.958008 
z"/>
<path fill="#00A098" opacity="1.000000" stroke="none" 
	d="
M768.919189,722.495972 
	C768.570557,721.711121 768.036255,720.464172 768.034119,719.216370 
	C767.986084,691.625977 767.991943,664.035522 768.016907,636.445068 
	C768.017822,635.478088 768.319641,634.511414 768.812744,633.284180 
	C769.090027,662.693665 769.035706,692.363647 768.919189,722.495972 
z"/>
<path fill="#FE341D" opacity="1.000000" stroke="none" 
	d="
M340.030090,357.034241 
	C362.803253,357.129852 385.576385,357.225494 408.645996,357.606567 
	C386.256714,358.035767 363.570984,358.179535 340.440125,358.000183 
	C340.006683,357.462830 340.018402,357.248535 340.030090,357.034241 
z"/>
<path fill="#06ABA4" opacity="1.000000" stroke="none" 
	d="
M471.498474,372.080994 
	C470.548798,372.436676 469.143829,372.933380 467.725647,372.974579 
	C454.335907,373.363647 440.942078,373.620575 427.554932,374.077026 
	C425.864594,374.134644 424.205994,375.122467 422.147766,375.798035 
	C423.137695,374.910950 424.484863,373.074066 425.891724,373.027161 
	C440.934723,372.525360 455.987213,372.306946 471.498474,372.080994 
z"/>
<path fill="#00A098" opacity="1.000000" stroke="none" 
	d="
M848.914307,500.492554 
	C848.577942,500.373169 848.066162,499.791321 848.067505,499.210663 
	C848.113647,479.035919 848.208130,458.861359 848.560974,438.374695 
	C848.876770,458.718658 848.927429,479.374634 848.914307,500.492554 
z"/>
<path fill="#FE4A35" opacity="1.000000" stroke="none" 
	d="
M339.602783,357.022034 
	C340.018402,357.248535 340.006683,357.462830 339.967712,357.998260 
	C328.895355,360.894806 317.850250,363.470215 306.418335,366.081970 
	C312.357147,363.753815 318.577026,361.024841 325.044403,359.149048 
	C329.580048,357.833527 334.453094,357.681458 339.602783,357.022034 
z"/>
<path fill="#FE341D" opacity="1.000000" stroke="none" 
	d="
M177.091583,441.533386 
	C177.429184,441.652252 177.937317,442.231354 177.935608,442.808929 
	C177.882553,460.660767 177.779633,478.512482 177.391953,496.655701 
	C177.074493,478.629120 177.049469,460.310974 177.091583,441.533386 
z"/>
<path fill="#FE341D" opacity="1.000000" stroke="none" 
	d="
M433.495453,357.817352 
	C433.907013,357.200165 434.752014,356.122986 435.602600,356.118591 
	C450.177704,356.042603 464.753510,356.093323 479.329010,356.155731 
	C479.754150,356.157562 480.177490,356.590729 480.793701,357.223633 
	C465.301025,357.701843 449.616241,357.779236 433.495453,357.817352 
z"/>
<path fill="#FE341D" opacity="1.000000" stroke="none" 
	d="
M411.869293,577.533569 
	C399.597839,577.843506 387.131378,577.760620 374.364349,577.398682 
	C386.600616,577.126648 399.137451,577.133728 411.869293,577.533569 
z"/>
<path fill="#FE341D" opacity="1.000000" stroke="none" 
	d="
M565.214111,441.477783 
	C565.814514,441.918427 566.881531,442.766937 566.894958,443.631805 
	C567.011108,451.121002 566.957642,458.613342 566.879578,466.103973 
	C566.873962,466.646210 566.278687,467.182251 565.584290,467.831299 
	C565.204773,459.258698 565.198486,450.575958 565.214111,441.477783 
z"/>
<path fill="#FE4A35" opacity="1.000000" stroke="none" 
	d="
M529.954468,287.643677 
	C522.322815,286.512360 514.447327,285.080475 506.306274,283.375000 
	C513.930725,284.515350 521.820740,285.929260 529.954468,287.643677 
z"/>
<path fill="#FE341D" opacity="1.000000" stroke="none" 
	d="
M575.515625,561.940063 
	C578.947388,561.590942 582.838013,561.125732 586.738037,561.025574 
	C592.879822,560.867981 599.027893,560.955811 605.652710,560.937500 
	C604.985779,561.298584 603.842102,561.967102 602.692871,561.976807 
	C593.788696,562.052063 584.883545,562.000183 575.515625,561.940063 
z"/>
<path fill="#FE341D" opacity="1.000000" stroke="none" 
	d="
M346.489258,577.080383 
	C340.071442,576.798950 333.202881,576.473328 326.221558,575.818848 
	C332.752045,576.005432 339.395233,576.520752 346.489258,577.080383 
z"/>
<path fill="#06ABA4" opacity="1.000000" stroke="none" 
	d="
M421.558441,375.988892 
	C419.994049,380.075012 418.134705,384.341949 415.910767,388.636536 
	C417.451965,384.499359 419.357727,380.334534 421.558441,375.988892 
z"/>
<path fill="#FE341D" opacity="1.000000" stroke="none" 
	d="
M368.480957,577.073059 
	C362.852081,577.304016 356.760529,577.491394 350.367493,577.401489 
	C356.050110,577.092712 362.034180,577.061096 368.480957,577.073059 
z"/>
<path fill="#06ABA4" opacity="1.000000" stroke="none" 
	d="
M415.327637,388.982544 
	C414.497559,392.060547 413.390228,395.329834 411.908356,398.631165 
	C412.706024,395.500092 413.878204,392.336975 415.327637,388.982544 
z"/>
<path fill="#FE4A35" opacity="1.000000" stroke="none" 
	d="
M254.016571,509.557922 
	C253.293640,506.884399 252.650604,503.791626 252.029785,500.257965 
	C252.733490,502.924286 253.414978,506.031494 254.016571,509.557922 
z"/>
<path fill="#06ABA4" opacity="1.000000" stroke="none" 
	d="
M663.105591,653.323059 
	C665.062866,654.589233 667.194336,656.141479 669.111938,657.876526 
	C667.025269,656.575928 665.152527,655.092529 663.105591,653.323059 
z"/>
<path fill="#FE4A35" opacity="1.000000" stroke="none" 
	d="
M300.325928,369.019257 
	C301.758453,368.064301 303.535339,367.047913 305.709839,366.045349 
	C304.295044,367.025330 302.482635,367.991577 300.325928,369.019257 
z"/>
<path fill="#FE4A35" opacity="1.000000" stroke="none" 
	d="
M201.564850,360.085388 
	C201.432602,361.255341 201.011963,362.590210 200.250565,363.940887 
	C200.365356,362.721222 200.820908,361.485779 201.564850,360.085388 
z"/>
<path fill="#FE4A35" opacity="1.000000" stroke="none" 
	d="
M257.336487,416.871948 
	C257.593170,415.439789 258.124725,413.769165 259.007416,411.887817 
	C258.776123,413.329224 258.193726,414.981354 257.336487,416.871948 
z"/>
<path fill="#06ABA4" opacity="1.000000" stroke="none" 
	d="
M537.018311,570.380859 
	C535.904968,570.265747 534.599243,569.883606 533.169067,569.155396 
	C534.305054,569.244202 535.565491,569.679077 537.018311,570.380859 
z"/>
<path fill="#FE4A35" opacity="1.000000" stroke="none" 
	d="
M255.496109,513.651306 
	C255.042206,513.132507 254.527649,512.315796 254.032135,511.160828 
	C254.512619,511.666138 254.974045,512.509766 255.496109,513.651306 
z"/>
<path fill="#FE4A35" opacity="1.000000" stroke="none" 
	d="
M544.085083,293.641968 
	C543.199951,293.508148 542.153137,293.089020 541.069397,292.299408 
	C541.996094,292.404816 542.959839,292.880737 544.085083,293.641968 
z"/>
<path fill="#FE4A35" opacity="1.000000" stroke="none" 
	d="
M289.346283,376.003662 
	C289.821533,375.410370 290.593506,374.719604 291.735748,374.028748 
	C291.285004,374.654510 290.464020,375.280334 289.346283,376.003662 
z"/>
<path fill="#FE4A35" opacity="1.000000" stroke="none" 
	d="
M295.323853,371.967407 
	C295.811371,371.375153 296.602509,370.704803 297.763885,370.058685 
	C297.298584,370.685089 296.463074,371.287201 295.323853,371.967407 
z"/>
<path fill="#FE4A35" opacity="1.000000" stroke="none" 
	d="
M263.167175,404.773895 
	C263.145721,404.342682 263.309692,403.693848 263.775085,403.040710 
	C263.835175,403.543030 263.593903,404.049652 263.167175,404.773895 
z"/>
<path fill="#FE4A35" opacity="1.000000" stroke="none" 
	d="
M179.745636,421.170166 
	C179.897934,421.604462 179.864548,422.242798 179.550690,422.922180 
	C179.366791,422.433563 179.463379,421.903900 179.745636,421.170166 
z"/>
<path fill="#FE4A35" opacity="1.000000" stroke="none" 
	d="
M285.342163,379.079468 
	C285.557373,378.507416 286.059570,377.824188 286.926666,377.191711 
	C286.737457,377.817749 286.183350,378.393005 285.342163,379.079468 
z"/>
<path fill="#FE4A35" opacity="1.000000" stroke="none" 
	d="
M272.575073,391.190247 
	C272.723480,390.571655 273.155975,389.833923 273.962097,389.095154 
	C273.843506,389.753082 273.351349,390.412079 272.575073,391.190247 
z"/>
<path fill="#FE4A35" opacity="1.000000" stroke="none" 
	d="
M280.367249,383.179871 
	C280.586121,382.604370 281.083923,381.896271 281.951721,381.280212 
	C281.763214,381.930573 281.204712,382.488922 280.367249,383.179871 
z"/>
<path fill="#FE341D" opacity="1.000000" stroke="none" 
	d="
M259.019470,733.344971 
	C259.615295,733.492310 260.259308,733.975220 260.926239,734.796143 
	C260.321991,734.649597 259.694824,734.165039 259.019470,733.344971 
z"/>
<path fill="#FE341D" opacity="1.000000" stroke="none" 
	d="
M423.441528,357.927185 
	C424.210602,357.716248 425.366028,357.548645 426.726746,357.624939 
	C425.897308,357.902679 424.862640,357.936554 423.441528,357.927185 
z"/>
<path fill="#06ABA4" opacity="1.000000" stroke="none" 
	d="
M539.986267,571.652344 
	C539.239929,571.730591 538.323547,571.510132 537.329590,570.924561 
	C538.106812,570.824158 538.961487,571.088928 539.986267,571.652344 
z"/>
<path fill="#FE4A35" opacity="1.000000" stroke="none" 
	d="
M255.383179,422.134308 
	C255.238144,421.379120 255.383301,420.394714 255.858551,419.216644 
	C256.016876,419.983673 255.845123,420.944397 255.383179,422.134308 
z"/>
<path fill="#FE4A35" opacity="1.000000" stroke="none" 
	d="
M253.361633,428.999207 
	C253.165741,428.276642 253.278214,427.368530 253.661407,426.243347 
	C253.844742,426.955414 253.757370,427.884552 253.361633,428.999207 
z"/>
<path fill="#FE341D" opacity="1.000000" stroke="none" 
	d="
M416.413574,357.926880 
	C416.901611,357.725677 417.749298,357.567688 418.769165,357.647156 
	C418.218628,357.913055 417.495911,357.941559 416.413574,357.926880 
z"/>
<path fill="#06ABA4" opacity="1.000000" stroke="none" 
	d="
M542.977966,572.636963 
	C542.542542,572.804199 541.964539,572.683716 541.203979,572.322998 
	C541.626038,572.171570 542.230774,572.260376 542.977966,572.636963 
z"/>
<path fill="#06ABA4" opacity="1.000000" stroke="none" 
	d="
M544.664062,573.000916 
	C544.408264,573.170471 543.833618,573.262390 543.148193,573.104309 
	C543.473389,572.877319 543.909241,572.900330 544.664062,573.000916 
z"/>
<path fill="#06ABA4" opacity="1.000000" stroke="none" 
	d="
M411.355164,398.954041 
	C411.482269,399.420319 411.347229,400.051666 410.878143,400.800110 
	C410.727081,400.317841 410.910095,399.718506 411.355164,398.954041 
z"/>
<path fill="#FE4A35" opacity="1.000000" stroke="none" 
	d="
M271.279327,392.930237 
	C271.238281,392.514526 271.446686,391.919312 271.972717,391.233063 
	C272.036499,391.678284 271.782623,392.214478 271.279327,392.930237 
z"/>
<path fill="#FE4A35" opacity="1.000000" stroke="none" 
	d="
M547.983032,295.640686 
	C547.534302,295.749237 546.924622,295.586517 546.173950,295.127563 
	C546.629333,295.010681 547.225647,295.190033 547.983032,295.640686 
z"/>
<path fill="#FE4A35" opacity="1.000000" stroke="none" 
	d="
M540.874207,291.749634 
	C540.506653,291.828766 539.931824,291.696228 539.190369,291.315247 
	C539.571472,291.223846 540.119202,291.380920 540.874207,291.749634 
z"/>
<path fill="#FE4A35" opacity="1.000000" stroke="none" 
	d="
M538.055481,290.654541 
	C537.597595,290.779297 536.966431,290.625671 536.178345,290.175964 
	C536.641602,290.045319 537.261963,290.210724 538.055481,290.654541 
z"/>
<path fill="#FE4A35" opacity="1.000000" stroke="none" 
	d="
M535.921387,289.703369 
	C535.529724,289.815582 534.948486,289.691803 534.196289,289.318970 
	C534.594116,289.202423 535.162964,289.334930 535.921387,289.703369 
z"/>
<path fill="#FE4A35" opacity="1.000000" stroke="none" 
	d="
M293.351929,373.194336 
	C293.515320,372.897064 293.959656,372.494873 294.730042,372.058594 
	C294.581665,372.379456 294.107269,372.734406 293.351929,373.194336 
z"/>
<path fill="#FE4A35" opacity="1.000000" stroke="none" 
	d="
M287.425354,377.240662 
	C287.562958,376.878052 288.004211,376.476379 288.773773,376.063812 
	C288.644409,376.435791 288.186707,376.818665 287.425354,377.240662 
z"/>
<path fill="#FE4A35" opacity="1.000000" stroke="none" 
	d="
M282.521057,381.324432 
	C282.625519,380.914185 283.034454,380.489624 283.773804,380.046936 
	C283.677948,380.455872 283.251740,380.882996 282.521057,381.324432 
z"/>
<path fill="#FE4A35" opacity="1.000000" stroke="none" 
	d="
M268.274902,396.892273 
	C268.240204,396.489380 268.442078,395.899200 268.953156,395.205566 
	C269.012085,395.636383 268.761810,396.170654 268.274902,396.892273 
z"/>
<path fill="#FE4A35" opacity="1.000000" stroke="none" 
	d="
M533.014099,288.684998 
	C532.596313,288.821106 531.992004,288.699432 531.205872,288.321960 
	C531.625183,288.186493 532.226440,288.306854 533.014099,288.684998 
z"/>
<path fill="#FE4A35" opacity="1.000000" stroke="none" 
	d="
M265.372742,401.000305 
	C265.292206,400.551971 265.478363,399.942200 265.991211,399.246948 
	C266.091736,399.720642 265.865601,400.279724 265.372742,401.000305 
z"/>
<path fill="#FE4A35" opacity="1.000000" stroke="none" 
	d="
M264.272552,402.890198 
	C264.224701,402.488190 264.408722,401.892578 264.889771,401.170715 
	C264.959351,401.595123 264.731903,402.145874 264.272552,402.890198 
z"/>
<path fill="#FE4A35" opacity="1.000000" stroke="none" 
	d="
M256.383423,419.003052 
	C256.252960,418.549286 256.397308,417.935089 256.832031,417.171814 
	C256.967651,417.629333 256.812958,418.235992 256.383423,419.003052 
z"/>
<path fill="#FE4A35" opacity="1.000000" stroke="none" 
	d="
M636.958984,435.634583 
	C636.776001,435.389771 636.676453,434.819153 636.807251,434.116119 
	C637.039185,434.425385 637.040894,434.867065 636.958984,435.634583 
z"/>
<path fill="#FE4A35" opacity="1.000000" stroke="none" 
	d="
M254.346344,425.023743 
	C254.200531,424.565704 254.347458,423.946533 254.770599,423.153809 
	C254.910889,423.607697 254.774979,424.235168 254.346344,425.023743 
z"/>
<path fill="#FE4A35" opacity="1.000000" stroke="none" 
	d="
M338.458557,671.220093 
	C338.339020,670.942383 338.510956,670.607178 338.976166,670.221802 
	C339.096313,670.501953 338.923157,670.832214 338.458557,671.220093 
z"/>
<path fill="#FE341D" opacity="1.000000" stroke="none" 
	d="
M260.962799,735.282104 
	C261.221344,735.047668 261.510193,735.179749 261.845764,735.651245 
	C261.646820,735.758240 261.347046,735.644226 260.962799,735.282104 
z"/>
<path fill="#FE4A35" opacity="1.000000" stroke="none" 
	d="
M337.338684,672.137085 
	C337.258820,671.928467 337.450012,671.601868 337.921234,671.191467 
	C338.004059,671.411438 337.806885,671.715271 337.338684,672.137085 
z"/>
<path fill="#FE4A35" opacity="1.000000" stroke="none" 
	d="
M339.487854,670.241455 
	C339.356354,669.949158 339.521759,669.611572 339.982910,669.231812 
	C340.114014,669.525146 339.949371,669.860657 339.487854,670.241455 
z"/>
<path fill="#FE4A35" opacity="1.000000" stroke="none" 
	d="
M340.576050,669.370300 
	C340.514557,669.160950 340.644745,668.912170 340.891083,668.842346 
	C341.007233,669.021301 340.767731,669.330872 340.576050,669.370300 
z"/>
<path fill="#FE4A35" opacity="1.000000" stroke="none" 
	d="
M546.049072,294.699829 
	C545.856445,294.802856 545.557983,294.662354 545.142029,294.301025 
	C545.330750,294.205536 545.636963,294.330933 546.049072,294.699829 
z"/>
<path fill="#FE341D" opacity="1.000000" stroke="none" 
	d="
M414.037231,579.791260 
	C413.826263,579.863037 413.534119,579.642639 413.129730,579.167969 
	C413.330322,579.108826 413.643188,579.303955 414.037231,579.791260 
z"/>
<path fill="#FE341D" opacity="1.000000" stroke="none" 
	d="
M413.129486,578.612305 
	C412.857697,578.771790 412.547302,578.588806 412.137634,578.147827 
	C412.389160,578.016541 412.740021,578.143188 413.129486,578.612305 
z"/>
<path fill="#FE4A35" opacity="1.000000" stroke="none" 
	d="
M548.749512,296.024872 
	C548.696045,296.148865 548.420898,296.190338 548.105835,296.035217 
	C548.065979,295.838593 548.527710,295.942352 548.749512,296.024872 
z"/>
<path fill="#00A098" opacity="1.000000" stroke="none" 
	d="
M629.883423,354.349426 
	C630.102966,354.269043 630.407532,354.482330 630.772583,354.977417 
	C630.544922,355.053802 630.256714,354.848480 629.883423,354.349426 
z"/>
<path fill="#FE4A35" opacity="1.000000" stroke="none" 
	d="
M298.358154,370.067108 
	C298.327240,369.827942 298.628418,369.513062 299.259460,369.120544 
	C299.289612,369.359100 298.989899,369.675262 298.358154,370.067108 
z"/>
<path fill="#FE4A35" opacity="1.000000" stroke="none" 
	d="
M269.382507,395.138184 
	C269.296234,394.886169 269.495575,394.564728 269.972656,394.152649 
	C270.056335,394.397583 269.862213,394.733185 269.382507,395.138184 
z"/>
<path fill="#FE4A35" opacity="1.000000" stroke="none" 
	d="
M267.309265,398.060669 
	C267.231201,397.857483 267.406158,397.549133 267.828430,397.131134 
	C267.904633,397.332855 267.733459,397.644165 267.309265,398.060669 
z"/>
<path fill="#FE4A35" opacity="1.000000" stroke="none" 
	d="
M266.458313,399.190063 
	C266.327881,398.914001 266.484039,398.581116 266.911865,398.153931 
	C267.037323,398.417511 266.891083,398.775391 266.458313,399.190063 
z"/>
<path fill="#FE4A35" opacity="1.000000" stroke="none" 
	d="
M179.648315,418.971344 
	C179.933121,419.101074 179.957901,419.332916 179.949966,419.913330 
	C179.740936,419.865753 179.564590,419.469574 179.648315,418.971344 
z"/>
</svg>